<svg preserveAspectRatio="none" width="1459" height="1889" viewBox="0 0 1459 1889" fill="none" xmlns="http://www.w3.org/2000/svg">
<path d="M0 592.917H1458.92V677.007C1458.92 695.622 1443.81 710.733 1425.2 710.733H33.7147C15.1059 710.733 0 695.622 0 677.007V592.917Z" fill="white"/>
<path d="M0.683878 676.24V655.512C19.3687 663.713 35.2724 659.062 50.0895 645.919C56.799 639.96 65.0586 635.757 72.5584 630.679C93.8418 616.283 115.095 601.849 136.363 587.429C136.082 586.799 135.809 586.168 135.527 585.544C117.625 588.934 99.7307 592.317 83.5154 595.388C153.376 564.201 206.057 508.082 266.366 460.021C256.519 482.885 246.671 505.741 236.823 528.605C223.663 537.248 210.745 546.285 197.281 554.433C183.254 562.924 168.703 570.548 154.379 578.551C175.564 578.734 195.586 575.929 215.707 574.295C288.25 568.404 360.816 562.909 433.382 557.261L433.093 556.858C403.809 609.252 374.532 661.638 343.575 717.027C452.432 718.137 553.963 697.956 656.148 684.16L655.852 683.818C631.81 766.89 607.776 849.953 583.734 933.017C586.804 933.952 587.685 934.56 588.347 934.378C606.993 929.065 625.724 924.025 644.219 918.226C732.719 890.467 821.052 861.978 915.129 860.374L914.772 859.949C913.533 864.449 912.796 869.169 910.988 873.425C892.728 916.455 874.294 959.408 855.99 1002.19C855.009 1001.94 855.929 1002.52 856.567 1002.29C861.005 1000.7 865.427 999.04 869.781 997.216C943.973 966.097 1020.57 956.428 1099.78 972.14C1142.2 980.554 1182.8 994.388 1220.58 1015.85L1220.74 1015.52C1216.93 1014.92 1213.11 1014.31 1209.3 1013.73C1193.52 1011.32 1182.45 1017.58 1175.69 1032.68C1197.38 1037.92 1219.2 1042.72 1240.76 1048.49C1316.8 1068.84 1388.73 1099.68 1458.92 1134.87V1254.05C1382.77 1250.37 1306.57 1247.46 1230.49 1242.66C1194.47 1240.39 1158.68 1234.52 1122.75 1230.3C1123.02 1225.66 1122.88 1220.91 1123.67 1216.33C1134.3 1154.45 1143.66 1092.24 1170.99 1033.46C1030.2 1008.07 898.99 1033.43 774.313 1100.19C805.117 1074.95 827.746 1043.72 846.476 1008.88C823.878 1019.43 801.751 1030.5 780.308 1042.78C688.86 1095.14 600.702 1154.4 495.196 1176.82C534.093 1101.08 558.963 1020.31 582.815 937.076C576.994 938.194 573.286 938.756 569.654 939.63C516.039 952.468 461.975 957.941 406.886 951.404C354.319 945.164 303.88 931.087 254.688 912.084C248.578 909.728 244.126 908.086 239.658 915.421C206.338 970.049 168.794 1021.36 119.441 1064.18C122.329 1066.17 124.289 1067.78 126.478 1068.99C168.345 1092.1 209.491 1116.65 252.309 1137.83C303.204 1163.02 356.994 1180.74 414.485 1181.65C441.475 1182.07 468.525 1178.35 495.546 1176.49C485.409 1192.08 475.273 1207.66 465.136 1223.25C465.539 1224.07 465.934 1224.87 466.337 1225.69C551.554 1193.69 636.78 1161.69 720.409 1130.28C697.15 1144.29 677.736 1164.32 663.602 1191.54C669.301 1191.19 673.465 1190.75 677.637 1190.71C715.964 1190.33 754.595 1186.76 792.549 1190.37C872.668 1197.97 952.422 1209.4 1032.34 1219.17C1062.62 1222.87 1092.94 1226.33 1123.24 1229.9C1121.22 1239.51 1118.31 1249.03 1117.32 1258.74C1103.08 1397.31 1089.07 1535.91 1075.09 1674.5C1072.5 1700.2 1070.31 1725.93 1067.93 1751.65C1034.17 1745 999.898 1740.24 966.753 1731.3C881.247 1708.22 796.235 1683.31 711.032 1659.11C658.101 1644.08 605.185 1629.02 552.261 1613.97L552.611 1614.28C576.288 1471.18 598.87 1327.79 659.689 1192.8C507.43 1208.14 366.583 1263.52 222.553 1306.39C222.014 1304.81 221.467 1303.24 220.927 1301.66C242.34 1293.61 263.753 1285.57 283.478 1278.15C218.344 1270.85 154.015 1252.24 91.6839 1226.51C61.0846 1213.87 31.002 1200 0.691476 1186.69C0.691476 1169.42 0.691476 1152.14 0.691476 1134.87C29.847 1118.73 59.2001 1102.95 88.0594 1086.28C98.1958 1080.43 107.109 1072.47 117.488 1064.8C77.2695 1038.96 38.9805 1014.36 0.691476 989.774C0.691476 924.139 0.691476 858.497 0.691476 792.862C4.6959 794.253 8.89029 795.241 12.6668 797.096C56.7382 818.751 100.612 840.802 144.813 862.191C177.259 877.887 210.107 892.762 245.227 909.143C279.132 844.922 312.163 782.35 345.733 718.752C315.347 716.168 287.536 716.084 260.645 711.06C191.711 698.192 123.058 683.742 54.5954 668.548C36.5869 664.549 20.4173 661.144 5.47095 674.97C4.39956 675.966 2.30996 675.86 0.691476 676.263L0.683878 676.24Z" fill="#FFBAC7"/>
<path d="M0.68383 116.592C0.68383 100.181 0.68383 83.7708 0.68383 67.3602C21.2151 67.497 41.7387 67.6338 62.2851 67.7479C55.5224 80.2667 48.7369 92.8008 41.7235 105.753C57.7108 104.347 73.0598 102.34 88.462 101.785C122.503 100.554 156.575 100.151 190.617 99.0945C194.522 98.9728 200.069 98.0303 201.908 95.408C207.698 87.1533 212.083 77.9104 217.546 68.0899H61.8748C76.008 45.3933 90.1489 22.6966 104.282 -1.61383e-05C154.356 -1.61383e-05 204.431 -1.61383e-05 254.513 -1.61383e-05C243.518 21.6249 232.53 43.2498 220.889 66.1516C269.231 66.1516 316.327 66.4633 363.407 65.7032C368.483 65.6196 375.573 60.4585 378.103 55.7155C387.783 37.5794 395.982 18.6377 404.736 -1.61383e-05C454.81 -1.61383e-05 504.884 -1.61383e-05 554.966 -1.61383e-05C553.454 4.83423 551.585 9.59247 550.513 14.5255C548.059 25.7902 541.388 28.6254 530.172 28.3214C516.054 27.9413 501.769 29.6592 487.727 31.6658C467.895 34.5086 456.17 47.97 445.281 65.992C510.332 60.3901 571.561 67.2386 631.172 87.4801C633.717 88.3466 638.079 88.6051 639.553 87.1229C649.028 77.6064 657.934 67.5198 667.151 57.4789C672.303 59.2575 677.432 61.0286 683.761 63.2177C691.132 41.4787 698.16 20.7356 705.197 -1.61383e-05C755.271 -1.61383e-05 805.345 -1.61383e-05 855.427 -1.61383e-05C849.766 21.3588 844.098 42.7177 838.445 64.0386C886.536 64.0386 934.178 64.2286 981.814 63.6509C985.362 63.6053 990.939 58.6646 992.003 54.9706C997.208 36.8421 1001.21 18.3564 1005.65 -1.61383e-05C1054 -1.61383e-05 1102.35 -1.61383e-05 1150.7 -1.61383e-05C1148.65 6.55206 1146.6 13.1117 1144.56 19.6638C1145.58 20.3099 1146.6 20.9484 1147.62 21.5945C1158.14 14.3963 1168.66 7.19815 1179.19 -1.61383e-05C1202.5 -1.61383e-05 1225.81 -1.61383e-05 1249.12 -1.61383e-05C1222.27 25.1746 1195.96 50.9648 1168.33 75.2653C1154.98 87.0164 1139.17 95.978 1124.48 106.209C1130.24 79.8943 1136 53.5872 1142.29 24.8325C1095.05 48.3805 1047.34 59.7896 997.512 63.0732C994.822 63.2481 990.689 66.0376 990.012 68.4016C982.741 93.9334 976.039 119.617 968.714 146.981C982.687 146.312 995.081 146.061 1007.41 145.073C1049.71 141.683 1089.48 130.525 1124.73 105.92C1120.4 131.558 1116.07 157.197 1111.63 183.534C1115.26 183.77 1118.19 184.165 1121.11 184.119C1142.1 183.77 1157.26 170.43 1171.99 158.603C1205.45 131.741 1237.41 103.032 1269.99 75.0676C1266.55 101.557 1263.1 128.054 1259.28 157.47C1314.29 109.531 1364.8 60.4585 1428.04 28.2454C1425.34 51.991 1422.63 75.7365 1419.75 101.048H1458.93V274.64C1443.74 266.21 1428.55 257.781 1411.81 248.492C1410.04 312.463 1408.46 374.396 1406.46 436.314C1406.22 443.633 1409.7 445.663 1415.53 447.677C1430.11 452.709 1444.47 458.372 1458.93 463.784V505.24C1436.02 497.988 1413.39 489.658 1390.14 483.812C1369.12 478.53 1347.41 475.961 1323.25 471.712C1317.3 537.59 1311.6 600.511 1305.92 663.432L1306.32 663.143C1302.45 661.296 1298.55 659.502 1294.71 657.61C1203.46 612.695 1111.53 569.43 1013.33 541.337L1013.62 541.785C1025.73 509.375 1037.83 476.964 1050.2 443.854C962.635 429.024 874.188 415.434 783.803 422.533C783.021 420.808 782.238 419.082 781.463 417.357C797.883 401.296 814.296 385.227 830.823 369.06C748.607 370.481 668.557 391.772 584.836 401.934C605.299 378.721 623.915 357.62 645.047 333.647C615.139 335.912 589.076 337.402 563.119 339.956C511.404 345.041 461.694 357.506 415.244 382.042C434.697 357.985 454.141 333.928 473.594 309.871C391.628 337.873 331.44 396.157 268.023 451.143C287.566 397.267 307.11 343.399 327.139 288.2C317.398 291.134 309.298 293.871 301.046 296.006C241.481 311.452 181.894 326.775 122.306 342.137C136.979 281.709 155.276 222.505 184.052 165.056C166.932 165.056 152.343 164.661 137.777 165.132C91.7826 166.614 45.6975 167.367 0.68383 178.791C0.68383 167.564 0.68383 156.338 0.68383 145.111C9.66529 134.31 18.6392 123.509 28.654 111.469C18.1149 113.407 9.39934 115.011 0.68383 116.615V116.592ZM879.598 317.046C883.162 314.88 886.726 312.713 890.282 310.555C890.282 309.24 890.282 307.932 890.282 306.617C833.635 300.324 777.033 293.566 720.318 287.957C695.433 285.494 662.083 307.613 651.034 332.081C657.326 331.724 663.329 331.602 669.278 331.017C715.979 326.449 762.619 321.082 809.388 317.472C832.738 315.67 856.324 317.031 879.811 316.955C866.05 333.175 852.297 349.388 836.545 367.95C915.015 365.046 988.789 371.948 1062.12 383.631C1079.73 386.436 1095.08 388.526 1104.85 369.676C1106.08 367.296 1109 365.791 1113.6 361.679C1082.86 352.034 1054.48 341.841 1025.41 334.3C977.695 321.911 928.966 316.05 879.591 317.046H879.598ZM795.938 214.691C783.522 232.143 771.106 249.595 758.706 267.016C777.474 270.558 797.663 273.188 817.207 278.281C863.01 290.222 908.647 302.885 954.041 316.309C965.781 319.782 972.954 318.505 977.566 306.944C984.709 289.059 992.026 271.25 1000.02 251.54C976.373 247.732 955.12 244.677 934.011 240.838C887.827 232.439 841.712 223.637 795.574 214.995C807.199 196.973 818.825 178.951 830.094 161.476C766.889 138.05 702.864 114.319 637.798 90.2013C622.547 119.214 607.981 146.935 592.944 175.538C612.343 178.092 630.442 179.407 648.079 182.995C697.461 193.051 746.662 204.049 795.931 214.683L795.938 214.691ZM389.47 168.195C406.126 134.804 422.782 101.42 439.666 67.5654C435.639 67.9835 431.391 68.1811 427.227 68.888C374.539 77.7888 322.094 88.7115 269.102 95.1039C225.866 100.318 207.318 130.639 187.988 163.62C213.876 165.505 239.224 165.246 264.566 165.565C306.365 166.097 348.165 167.01 389.964 167.762C369.82 206.246 349.669 244.73 328.234 285.677C368.703 274.777 404.47 263.672 440.935 255.767C474.027 248.591 507.87 244.897 541.319 239.706C522.171 259.294 503.03 278.874 483.882 298.462C484.543 299.404 485.212 300.347 485.873 301.297C493.205 299.267 500.538 297.245 507.87 295.208C565.3 279.292 623.87 280.288 682.561 283.624C698.366 284.521 734.208 275.605 747.369 266.226C684.354 253.669 622.54 240.002 558.636 241.34C552.793 241.462 546.927 240.329 541.076 239.782C557.823 219.631 574.563 199.481 591.31 179.338C590.322 178.229 589.334 177.111 588.346 176.002C560.832 174.512 533.333 172.665 505.796 171.623C467.036 170.156 428.253 169.297 389.463 168.195H389.47ZM1202.06 335.479C1207.41 285.532 1212.53 237.737 1217.77 188.779C1212.22 188.095 1206.81 186.856 1201.4 186.848C1145.4 186.757 1089.4 186.559 1033.42 187.426C1028.32 187.502 1021.04 193.712 1018.7 198.865C1011.26 215.208 1005.69 232.401 998.667 251.214C1073.54 263.102 1138.74 294.296 1202.06 335.479ZM1054.64 441.011C1055.12 442.653 1055.6 444.295 1056.09 445.937C1145.31 455.027 1234.54 464.118 1323.28 473.156C1327.63 456.722 1331.24 443.117 1335.3 427.808C1292.53 397.891 1248.7 367.236 1203.11 335.342C1201.38 352.17 1200.26 365.465 1198.57 378.69C1196.94 391.437 1191.84 405.332 1212.86 408.471C1174.52 402.846 1137.7 396.218 1100.77 390.297C1096.28 389.575 1089.09 391.118 1086.7 394.288C1075.34 409.353 1065.2 425.345 1054.63 441.011H1054.64ZM1411.22 247.231C1413.77 197.794 1416.21 150.432 1418.69 102.355C1415.86 102.355 1413.81 102.127 1411.81 102.386C1377.7 106.908 1346.25 119.397 1315.21 133.649C1288.31 146 1260.87 157.204 1233.44 168.332C1224.31 172.034 1221.71 178.434 1221.19 187.852C1288.58 194.069 1350.87 215.002 1411.22 247.231ZM811.492 136.446C819.927 112.67 827.769 90.5585 835.952 67.4894H692.241C732.833 90.9614 771.046 113.058 811.492 136.446ZM965.264 146.814H830.8C838.027 150.538 843.695 153.465 850.465 156.953C847.122 158.162 844.797 158.998 842.479 159.842C869.819 167.238 897.067 172.862 924.475 177.514C956.67 182.979 956.731 182.614 965.917 150.857C966.024 150.493 965.796 150.029 965.264 146.821V146.814Z" fill="#FFBAC7"/>
<path d="M1458.92 751.384V1088.21C1401.75 1027.97 1344.57 967.724 1287.7 907.805C1279.08 942.359 1270.65 976.207 1261.62 1012.4C1275.82 1025.77 1293.07 1042.02 1310.32 1058.25C1297.65 1054.86 1286.32 1049.85 1275.31 1044.21C1257.01 1034.85 1238.92 1025.09 1220.73 1015.5L1220.57 1015.82C1232.24 1015.95 1245.19 1021.96 1254.89 1008.23C1247.29 1001.72 1240.21 995.536 1233.01 989.493C1172.42 938.635 1106.45 896.593 1029.16 877.051C991.965 867.649 952.954 865.414 914.764 859.941L915.121 860.367C933.046 804.902 950.971 749.445 969.078 693.411C897.599 672.918 827.685 670.775 757.345 675.024C723.456 677.076 689.673 680.823 655.844 683.81L656.141 684.152C676.224 629.357 696.307 574.569 716.351 519.856C714.604 520.016 710.835 520.183 707.119 520.715C667.47 526.393 627.882 532.558 588.172 537.749C536.525 544.507 484.779 550.519 433.078 556.851L433.367 557.254C457.568 526.006 481.77 494.758 506.518 462.803C456.626 470.609 405.572 476.128 355.756 487.21C318.682 495.457 283.205 510.918 247.021 523.163C271.989 502.663 300.537 486.838 319.419 458.592C329.655 443.284 346.318 431.981 361.044 420.063C375.58 408.296 391.324 398.02 406.537 387.089C407.426 388.192 408.315 389.294 409.204 390.388C389.371 408.319 369.539 426.257 347.921 445.792C408.201 421.895 545.574 397.389 583.347 403.88C560.969 422.829 539.45 441.057 517.931 459.276C605.648 448.43 691.2 426.995 778.591 422.556C759.154 454.092 740.287 484.725 719.991 517.66C725.865 517.66 727.886 517.865 729.854 517.629C782.702 511.26 835.846 508.539 888.519 516.208C930.562 522.327 971.928 533.09 1013.59 541.785L1013.3 541.337C998.113 591.428 982.915 641.518 967.574 692.118C1095.98 730.382 1192.59 812.458 1286.2 905.395C1293.13 821.883 1299.71 742.521 1306.3 663.151L1305.9 663.44C1349.22 688.318 1392.54 713.196 1435.86 738.082C1443.55 742.498 1451.23 746.952 1458.91 751.384H1458.92Z" fill="#FFBAC7"/>
<path d="M0.683878 1352.49C72.3228 1344.58 142.51 1329.57 211.49 1308.59C196.346 1324.97 180.382 1339.97 167.092 1357.04C129.342 1405.53 104.996 1461.34 83.8346 1518.42C69.9141 1555.95 58.5999 1594.44 46.1611 1632.52C45.4088 1634.83 45.0745 1637.26 44.1323 1641.52C59.5041 1635.79 73.0447 1630.71 86.608 1625.69C164.888 1596.73 245.334 1579.71 329.221 1581.69C401.537 1583.4 472.332 1595.63 542.489 1612.39C545.818 1613.19 549.237 1613.64 552.611 1614.26L552.261 1613.95C539.351 1705.57 526.449 1797.19 513.539 1888.82H0.683878C0.683878 1859.46 0.683878 1830.09 0.683878 1800.72C2.29477 1796.42 4.31597 1792.23 5.44816 1787.81C15.4098 1748.96 25.1967 1710.08 35.0596 1671.22C37.2936 1662.43 39.6339 1653.67 42.5442 1642.52C26.7088 1649.44 13.6926 1655.13 0.683878 1660.81C0.683878 1558.04 0.683878 1455.27 0.683878 1352.49Z" fill="#FFBAC7"/>
<path d="M1060.04 1888.82C1062.75 1845.93 1065.49 1803.04 1068.13 1760.15C1068.31 1757.22 1067.77 1754.24 1067.57 1751.28C1173.16 1769.23 1278.95 1772.13 1384.99 1755.52C1409.65 1751.65 1434.28 1747.66 1458.92 1743.72V1888.82H1060.04Z" fill="#FFBAC7"/>
<path d="M0.683878 375.688C41.336 364.385 81.9882 353.083 122.648 341.78C104.518 421.4 85.8178 500.892 68.7591 580.741C65.4006 596.467 59.0178 603.186 43.6916 604.6C29.2695 605.93 15.0147 609.1 0.691476 611.464C0.691476 532.869 0.691476 454.275 0.691476 375.688H0.683878Z" fill="#FFBAC7"/>
<path d="M1355.31 -3.05176e-05C1326.78 25.1137 1298.25 50.2275 1269.71 75.3413C1272.34 50.2275 1274.97 25.1137 1277.61 -3.05176e-05C1303.51 -3.05176e-05 1329.41 -3.05176e-05 1355.31 -3.05176e-05Z" fill="#FFBAC7"/>
<path d="M1458.92 18.136C1448.5 21.6477 1438.07 25.1517 1427.66 28.6634C1428.58 19.1089 1429.5 9.55445 1430.42 -3.05176e-05C1439.92 -3.05176e-05 1449.42 -3.05176e-05 1458.92 -3.05176e-05V18.136Z" fill="#FFBAC7"/>
<path d="M1122.77 1230.25C1158.67 1234.49 1194.47 1240.36 1230.49 1242.63C1306.57 1247.43 1382.77 1250.34 1458.92 1254.02V1743.72C1434.28 1747.66 1409.64 1751.65 1384.99 1755.52C1278.95 1772.13 1173.16 1769.23 1067.57 1751.28L1067.91 1751.63C1070.29 1725.91 1072.49 1700.17 1075.08 1674.47C1089.05 1535.88 1103.06 1397.29 1117.3 1258.72C1118.3 1249.01 1121.21 1239.48 1123.21 1229.89C1123.19 1229.91 1122.78 1230.26 1122.78 1230.26L1122.77 1230.25Z" fill="#E9F0EC"/>
<path d="M0.683811 1186.66C31.0019 1199.98 61.0845 1213.86 91.6762 1226.49C153.999 1252.21 218.328 1270.83 283.471 1278.13C263.737 1285.55 242.332 1293.59 220.92 1301.64C221.459 1303.22 222.006 1304.79 222.546 1306.37C366.576 1263.49 507.422 1208.11 659.681 1192.77C598.855 1327.77 576.272 1471.15 552.603 1614.26C549.229 1613.64 545.817 1613.19 542.482 1612.39C472.332 1595.63 401.529 1583.39 329.214 1581.69C245.326 1579.7 164.88 1596.73 86.6004 1625.69C73.037 1630.71 59.4964 1635.79 44.1246 1641.52C45.0744 1637.27 45.4012 1634.83 46.1534 1632.52C58.5846 1594.44 69.9064 1555.95 83.8269 1518.42C104.996 1461.34 129.342 1405.53 167.084 1357.04C180.374 1339.96 196.338 1324.96 211.482 1308.59C142.503 1329.57 72.3151 1344.58 0.676212 1352.49C0.676212 1297.21 0.676212 1241.94 0.676212 1186.66H0.683811Z" fill="#E9F0EC"/>
<path d="M513.524 1888.82C526.434 1797.19 539.336 1705.57 552.246 1613.95C605.17 1629 658.086 1644.05 711.017 1659.09C796.219 1683.28 881.232 1708.21 966.738 1731.28C999.883 1740.22 1034.15 1744.97 1067.91 1751.63L1067.57 1751.28C1067.78 1754.24 1068.31 1757.22 1068.13 1760.15C1065.49 1803.05 1062.75 1845.93 1060.04 1888.82L513.524 1888.82Z" fill="#E9F0EC"/>
<path d="M1013.6 541.785C971.935 533.082 930.561 522.327 888.526 516.208C835.853 508.539 782.709 511.26 729.861 517.629C727.893 517.865 725.865 517.66 719.998 517.66C740.294 484.725 759.161 454.092 778.598 422.556C691.208 426.995 605.656 448.43 517.938 459.276C539.457 441.049 560.976 422.829 583.354 403.88C545.582 397.389 408.208 421.902 347.929 445.792C369.539 426.25 389.371 408.319 409.211 390.388C408.322 389.286 407.433 388.184 406.544 387.089C391.332 398.02 375.588 408.289 361.052 420.063C346.326 431.989 329.662 443.291 319.427 458.592C300.544 486.845 271.997 502.663 247.074 523.125C243.685 524.926 240.258 526.766 236.823 528.605C246.671 505.741 256.519 482.885 266.366 460.021C206.057 508.082 153.376 564.201 83.5154 595.388C99.7307 592.317 117.625 588.934 135.527 585.544C135.809 586.175 136.082 586.806 136.363 587.429C115.095 601.849 93.8418 616.283 72.5584 630.679C65.051 635.757 56.799 639.968 50.0895 645.919C35.2724 659.062 19.3687 663.713 0.683878 655.512L0.683779 611.464C15.0146 609.1 29.2618 605.93 43.6838 604.6C59.0101 603.186 65.3928 596.467 68.7514 580.741C85.8177 500.892 104.518 421.4 122.64 341.78L122.291 342.129C181.871 326.768 241.466 311.444 301.031 295.999C309.283 293.863 317.375 291.127 327.124 288.193C307.102 343.384 287.559 397.26 268.008 451.136C331.425 396.15 391.613 337.873 473.578 309.863C454.126 333.92 434.681 357.978 415.229 382.035C461.679 357.491 511.381 345.033 563.104 339.948C589.061 337.394 615.124 335.904 645.031 333.639C623.9 357.605 605.283 378.713 584.821 401.927C668.541 391.772 748.592 370.481 830.808 369.052C814.281 385.22 797.861 401.288 781.448 417.349C782.23 419.075 783.013 420.8 783.788 422.525C874.165 415.434 962.612 429.017 1050.18 443.846C1037.82 476.956 1025.71 509.367 1013.61 541.778L1013.6 541.785Z" fill="#E9F0EC"/>
<path d="M0.683878 676.24C2.30236 675.837 4.39186 675.943 5.46325 674.948C20.4096 661.121 36.5792 664.527 54.5877 668.525C123.05 683.719 191.703 698.169 260.637 711.037C287.528 716.054 315.339 716.137 345.725 718.729C312.155 782.327 279.124 844.899 245.22 909.12C210.099 892.732 177.251 877.864 144.805 862.168C100.604 840.779 56.7305 818.728 12.6591 797.073C8.88259 795.218 4.6882 794.23 0.683779 792.839C0.683779 753.975 0.683779 715.111 0.683779 676.247L0.683878 676.24Z" fill="#E9F0EC"/>
<path d="M1458.92 751.384C1451.24 746.945 1443.56 742.498 1435.87 738.082C1392.55 713.196 1349.23 688.318 1305.91 663.44C1311.6 600.518 1317.28 537.597 1323.24 471.719C1347.39 475.968 1369.1 478.53 1390.13 483.82C1413.38 489.665 1436.01 497.996 1458.91 505.247V751.391L1458.92 751.384Z" fill="#E9F0EC"/>
<path d="M0.683779 178.776C45.6975 167.359 91.7826 166.599 137.776 165.117C152.343 164.646 166.932 165.041 184.051 165.041C155.276 222.497 136.971 281.701 122.306 342.122L122.655 341.772C82.0032 353.075 41.3511 364.378 0.691377 375.68C0.691377 310.046 0.691377 244.403 0.691377 178.768L0.683779 178.776Z" fill="#E9F0EC"/>
<path d="M1220.74 1015.5C1238.92 1025.09 1257.02 1034.85 1275.31 1044.21C1286.33 1049.85 1297.66 1054.87 1310.33 1058.25C1293.08 1042.01 1275.82 1025.77 1261.63 1012.4C1270.66 976.206 1279.1 942.351 1287.71 907.805C1344.57 967.724 1401.75 1027.97 1458.93 1088.21V1134.85C1388.73 1099.66 1316.8 1068.82 1240.76 1048.47C1219.21 1042.7 1197.39 1037.9 1175.7 1032.66C1182.46 1017.56 1193.53 1011.3 1209.31 1013.7C1213.12 1014.29 1216.93 1014.9 1220.75 1015.5H1220.74Z" fill="#E9F0EC"/>
<path d="M705.197 -1.61383e-05C698.168 20.7356 691.139 41.4787 683.769 63.2176C677.439 61.0285 672.318 59.2575 667.158 57.4789C657.934 67.5198 649.028 77.6064 639.561 87.1229C638.079 88.605 633.725 88.3466 631.179 87.4801C571.561 67.2386 510.332 60.3901 445.289 65.992C456.17 47.97 467.902 34.5086 487.734 31.6658C501.776 29.6515 516.062 27.9337 530.18 28.3214C541.395 28.6254 548.067 25.7902 550.521 14.5255C551.592 9.59246 553.469 4.83422 554.974 -3.05176e-05C605.048 -3.05176e-05 655.122 -3.05176e-05 705.204 -3.05176e-05L705.197 -1.61383e-05Z" fill="#E9F0EC"/>
<path d="M1124.47 106.201C1139.16 95.978 1154.98 87.0088 1168.33 75.2577C1195.95 50.9648 1222.27 25.1745 1249.11 -3.05176e-05C1258.61 -3.05176e-05 1268.11 -3.05176e-05 1277.61 -3.05176e-05C1274.98 25.1137 1272.35 50.2275 1269.71 75.3413L1269.98 75.0676C1237.41 103.032 1205.44 131.741 1171.98 158.603C1157.26 170.422 1142.09 183.77 1121.1 184.119C1118.18 184.165 1115.25 183.77 1111.62 183.534C1116.06 157.197 1120.4 131.558 1124.72 105.92L1124.46 106.201H1124.47Z" fill="#E9F0EC"/>
<path d="M1428.04 28.2454C1364.79 60.4585 1314.29 109.531 1259.27 157.47C1263.1 128.054 1266.54 101.565 1269.98 75.0676L1269.72 75.3413C1298.25 50.2275 1326.78 25.1137 1355.31 -3.05176e-05C1380.35 -3.05176e-05 1405.39 -3.05176e-05 1430.42 -3.05176e-05C1429.5 9.55445 1428.58 19.1089 1427.66 28.6634L1428.04 28.2454Z" fill="#E9F0EC"/>
<path d="M404.736 -1.61383e-05C395.982 18.6377 387.776 37.5794 378.095 55.723C375.565 60.4661 368.475 65.6272 363.4 65.7108C316.319 66.4709 269.223 66.1592 220.882 66.1592C232.53 43.2498 243.518 21.6249 254.513 -1.61383e-05C304.587 -1.61383e-05 354.661 -1.61383e-05 404.736 -1.61383e-05Z" fill="#E9F0EC"/>
<path d="M1005.65 -1.61383e-05C1001.22 18.3564 997.216 36.8421 991.996 54.9705C990.932 58.6646 985.354 63.6129 981.806 63.6509C934.171 64.2286 886.528 64.0386 838.437 64.0386C844.09 42.7177 849.759 21.3588 855.42 -3.05176e-05C905.494 -3.05176e-05 955.568 -1.61383e-05 1005.65 -1.61383e-05Z" fill="#E9F0EC"/>
<path d="M1458.92 463.784C1444.47 458.372 1430.1 452.717 1415.52 447.677C1409.69 445.663 1406.21 443.633 1406.45 436.314C1408.45 374.396 1410.04 312.463 1411.8 248.492C1428.55 257.781 1443.73 266.21 1458.92 274.64V463.784Z" fill="#E9F0EC"/>
<path d="M0.683779 989.752C38.9728 1014.35 77.2694 1038.95 117.481 1064.77C107.101 1072.44 98.1805 1080.41 88.0517 1086.26C59.1925 1102.92 29.8393 1118.71 0.683779 1134.85C0.683779 1086.48 0.683779 1038.12 0.683779 989.752Z" fill="#E9F0EC"/>
<path d="M62.2623 67.7707C41.7311 67.6339 21.2075 67.497 0.676263 67.3678V-1.61383e-05C35.2116 -1.61383e-05 69.7469 -1.61383e-05 104.282 -1.61383e-05C90.1413 22.6966 76.0081 45.3933 61.8672 68.0899L62.2547 67.7707H62.2623Z" fill="#E9F0EC"/>
<path d="M0.683779 1660.81C13.7001 1655.12 26.7087 1649.44 42.5441 1642.51C39.6338 1653.67 37.2935 1662.43 35.0595 1671.21C25.1966 1710.08 15.4021 1748.96 5.44806 1787.8C4.31588 1792.22 2.29467 1796.42 0.683779 1800.71C0.683779 1754.07 0.683779 1707.44 0.683779 1660.8V1660.81Z" fill="#E9F0EC"/>
<path d="M1458.92 101.048H1419.74C1422.63 75.7365 1425.33 51.9909 1428.04 28.2454L1427.66 28.6634C1438.07 25.1517 1448.5 21.6477 1458.92 18.136L1458.92 101.048Z" fill="#E9F0EC"/>
<path d="M0.68383 116.592C9.39934 114.988 18.1148 113.384 28.654 111.446C18.6391 123.486 9.66524 134.287 0.683779 145.088C0.683779 135.587 0.683779 126.086 0.683779 116.584L0.68383 116.592Z" fill="#E9F0EC"/>
<path d="M1179.19 -1.61383e-05C1168.66 7.19815 1158.14 14.3963 1147.61 21.5945C1146.6 20.9484 1145.58 20.3099 1144.55 19.6638C1146.6 13.1117 1148.65 6.55205 1150.69 -3.05176e-05C1160.19 -3.05176e-05 1169.69 -1.61383e-05 1179.19 -1.61383e-05Z" fill="#E9F0EC"/>
<path d="M495.53 1176.47C468.51 1178.32 441.459 1182.04 414.469 1181.62C356.979 1180.71 303.189 1162.99 252.294 1137.8C209.476 1116.62 168.323 1092.07 126.462 1068.96C124.282 1067.75 122.321 1066.14 119.426 1064.15C168.786 1021.33 206.33 970.019 239.642 915.391C244.118 908.056 248.563 909.69 254.672 912.054C303.873 931.056 354.312 945.133 406.871 951.374C461.96 957.911 516.024 952.438 569.639 939.6C573.271 938.733 576.979 938.163 582.8 937.046C558.94 1020.28 534.078 1101.05 495.181 1176.79L495.523 1176.46L495.53 1176.47Z" fill="#E9F0EC"/>
<path d="M495.196 1176.8C600.702 1154.38 688.86 1095.11 780.308 1042.75C801.751 1030.48 823.886 1019.4 846.476 1008.86C827.746 1043.7 805.117 1074.93 774.313 1100.17C898.99 1033.4 1030.2 1008.05 1170.99 1033.44C1143.66 1092.21 1134.29 1154.43 1123.67 1216.31C1122.88 1220.89 1123.02 1225.63 1122.75 1230.28C1122.77 1230.26 1123.18 1229.91 1123.21 1229.89C1092.93 1226.3 1062.61 1222.84 1032.32 1219.14C952.407 1209.38 872.653 1197.96 792.534 1190.34C754.58 1186.74 715.949 1190.3 677.622 1190.68C673.45 1190.72 669.286 1191.17 663.587 1191.52C677.72 1164.3 697.135 1144.26 720.394 1130.26C636.764 1161.66 551.539 1193.66 466.322 1225.66C465.919 1224.85 465.524 1224.05 465.121 1223.23C475.258 1207.64 485.394 1192.05 495.53 1176.47C495.53 1176.48 495.189 1176.8 495.189 1176.8L495.196 1176.8Z" fill="#E9F0EC"/>
<path d="M655.859 683.81C689.688 680.831 723.479 677.076 757.36 675.024C827.7 670.767 897.614 672.918 969.094 693.41C950.986 749.438 933.061 804.902 915.136 860.367C821.059 861.971 732.734 890.452 644.226 918.218C625.731 924.018 607.001 929.057 588.354 934.37C587.701 934.56 586.819 933.952 583.742 933.01C607.776 849.953 631.818 766.882 655.859 683.81Z" fill="#E9F0EC"/>
<path d="M433.101 556.851C484.801 550.519 536.547 544.507 588.195 537.749C627.904 532.55 667.493 526.393 707.142 520.715C710.858 520.183 714.626 520.016 716.374 519.856C696.322 574.569 676.239 629.364 656.163 684.152C553.978 697.948 452.447 718.129 343.59 717.019C374.547 661.631 403.831 609.244 433.108 556.851H433.101Z" fill="#E9F0EC"/>
<path d="M914.772 859.941C952.962 865.422 991.973 867.649 1029.17 877.051C1106.47 896.593 1172.42 938.635 1233.01 989.493C1240.22 995.536 1247.3 1001.72 1254.9 1008.23C1245.2 1021.96 1232.24 1015.95 1220.58 1015.82C1182.81 994.365 1142.2 980.531 1099.78 972.117C1020.57 956.406 943.973 966.074 869.781 997.193C865.427 999.017 861.004 1000.67 856.567 1002.27C855.936 1002.5 855.009 1001.92 855.989 1002.17C874.294 959.393 892.728 916.432 910.988 873.403C912.796 869.139 913.541 864.426 914.772 859.926V859.941Z" fill="#E9F0EC"/>
<path d="M236.823 528.598C240.258 526.758 243.692 524.919 247.074 523.117C283.212 510.91 318.69 495.45 355.763 487.202C405.579 476.12 456.634 470.602 506.526 462.796C481.777 494.75 457.576 525.998 433.375 557.246C360.816 562.893 288.243 568.389 215.699 574.28C195.586 575.914 175.564 578.719 154.372 578.536C168.695 570.532 183.238 562.909 197.273 554.418C210.738 546.278 223.655 537.24 236.816 528.59L236.823 528.598Z" fill="#E9F0EC"/>
<path d="M1306.31 663.151C1299.72 742.521 1293.14 821.883 1286.21 905.395C1192.6 812.458 1095.99 730.389 967.581 692.118C982.923 641.526 998.12 591.428 1013.31 541.337C1111.51 569.43 1203.44 612.695 1294.68 657.61C1298.54 659.502 1302.43 661.304 1306.3 663.143L1306.31 663.151Z" fill="#E9F0EC"/>
<path d="M1202.06 335.479C1138.75 294.296 1073.54 263.102 998.667 251.214C1005.69 232.401 1011.27 215.215 1018.7 198.865C1021.04 193.712 1028.32 187.51 1033.42 187.426C1089.4 186.559 1145.4 186.757 1201.4 186.848C1206.81 186.856 1212.22 188.095 1217.77 188.779C1212.53 237.729 1207.41 285.532 1202.06 335.479Z" fill="#E9F0EC"/>
<path d="M1054.63 441.011C1065.2 425.345 1075.33 409.353 1086.7 394.288C1089.08 391.118 1096.27 389.583 1100.77 390.297C1137.7 396.218 1174.52 402.846 1212.86 408.471C1191.84 405.332 1196.94 391.437 1198.57 378.69C1200.26 365.472 1201.37 352.178 1203.11 335.342C1248.71 367.236 1292.53 397.89 1335.3 427.808C1331.24 443.109 1327.64 456.722 1323.28 473.156C1234.54 464.118 1145.31 455.027 1056.09 445.937C1055.6 444.295 1055.12 442.653 1054.64 441.011H1054.63Z" fill="#E9F0EC"/>
<path d="M541.388 239.66C507.87 244.89 474.027 248.584 440.935 255.759C404.47 263.664 368.703 274.769 328.234 285.669C349.669 244.722 369.813 206.238 389.964 167.754L389.485 168.165C428.261 169.282 467.044 170.149 505.804 171.616C533.333 172.657 560.84 174.504 588.354 175.994C589.342 177.104 590.33 178.221 591.318 179.331C574.57 199.481 557.831 219.631 541.084 239.774L541.388 239.652V239.66Z" fill="#E9F0EC"/>
<path d="M389.964 167.762C348.165 167.01 306.365 166.097 264.566 165.565C239.224 165.246 213.876 165.505 187.988 163.62C207.318 130.639 225.866 100.318 269.102 95.1039C322.094 88.7115 374.539 77.7888 427.227 68.888C431.391 68.1811 435.639 67.9835 439.666 67.5654C422.782 101.42 406.126 134.804 389.478 168.18C389.485 168.172 389.964 167.762 389.964 167.762Z" fill="#E9F0EC"/>
<path d="M795.931 214.683C746.662 204.057 697.469 193.058 648.078 183.002C630.442 179.407 612.335 178.099 592.944 175.546C607.981 146.943 622.547 119.214 637.798 90.2089C702.864 114.327 766.889 138.057 830.094 161.484C818.817 178.958 807.199 196.98 795.573 215.002L795.931 214.683Z" fill="#E9F0EC"/>
<path d="M1411.21 247.231C1350.86 215.002 1288.57 194.069 1221.18 187.852C1221.71 178.434 1224.31 172.034 1233.43 168.332C1260.86 157.197 1288.3 145.993 1315.2 133.649C1346.24 119.397 1377.7 106.908 1411.81 102.386C1413.8 102.12 1415.85 102.355 1418.68 102.355C1416.21 150.432 1413.77 197.794 1411.21 247.231Z" fill="#E9F0EC"/>
<path d="M795.573 215.002C841.719 223.637 887.827 232.439 934.011 240.846C955.12 244.684 976.373 247.74 1000.02 251.548C992.018 271.258 984.709 289.074 977.566 306.952C972.946 318.505 965.781 319.782 954.041 316.316C908.647 302.893 863.01 290.23 817.207 278.288C797.663 273.196 777.474 270.558 758.706 267.024C771.099 249.602 783.515 232.15 795.938 214.698L795.581 215.01L795.573 215.002Z" fill="#E9F0EC"/>
<path d="M1124.73 105.92C1089.48 130.525 1049.71 141.683 1007.41 145.073C995.081 146.061 982.687 146.312 968.714 146.981C976.031 119.625 982.741 93.9334 990.012 68.4016C990.689 66.0376 994.822 63.2557 997.512 63.0732C1047.34 59.782 1095.05 48.3805 1142.29 24.8325C1136 53.5872 1130.24 79.9019 1124.48 106.209L1124.73 105.928L1124.73 105.92Z" fill="#E9F0EC"/>
<path d="M879.553 317.069C928.973 316.05 977.695 321.911 1025.42 334.3C1054.49 341.848 1082.87 352.034 1113.61 361.679C1109.01 365.791 1106.1 367.296 1104.86 369.676C1095.08 388.518 1079.74 386.436 1062.13 383.631C988.804 371.948 915.022 365.047 836.552 367.95C852.304 349.388 866.058 333.168 879.818 316.955L879.56 317.069H879.553Z" fill="#E9F0EC"/>
<path d="M541.084 239.782C546.942 240.329 552.808 241.462 558.644 241.34C622.54 240.002 684.361 253.669 747.376 266.226C734.215 275.605 698.373 284.521 682.568 283.624C623.877 280.28 565.308 279.284 507.878 295.208C500.545 297.238 493.213 299.267 485.88 301.297C485.219 300.354 484.551 299.412 483.889 298.462C503.038 278.874 522.178 259.294 541.365 239.683C541.395 239.668 541.091 239.782 541.091 239.782H541.084Z" fill="#E9F0EC"/>
<path d="M879.811 316.962C856.331 317.031 832.738 315.67 809.388 317.479C762.611 321.09 715.979 326.456 669.278 331.024C663.329 331.61 657.326 331.731 651.034 332.089C662.083 307.621 695.432 285.509 720.318 287.965C777.033 293.567 833.635 300.331 890.282 306.625C890.282 307.94 890.282 309.247 890.282 310.562C886.718 312.729 883.154 314.895 879.575 317.069C879.552 317.084 879.811 316.97 879.811 316.97V316.962Z" fill="#E9F0EC"/>
<path d="M61.8748 68.0899L217.553 68.0899C212.09 77.9104 207.706 87.1533 201.916 95.408C200.077 98.0303 194.522 98.9728 190.624 99.0945C156.575 100.151 122.503 100.554 88.4696 101.785C73.0674 102.348 57.7184 104.354 41.7311 105.753C48.7445 92.8008 55.53 80.2667 62.2927 67.7479C62.2699 67.7631 61.8824 68.0823 61.8824 68.0823L61.8748 68.0899Z" fill="#E9F0EC"/>
<path d="M811.485 136.446C771.038 113.057 732.825 90.9613 692.234 67.4894H835.944C827.761 90.5585 819.919 112.67 811.485 136.446Z" fill="#E9F0EC"/>
<path d="M965.256 146.814C965.796 150.021 966.016 150.485 965.91 150.85C956.723 182.607 956.662 182.972 924.467 177.507C897.059 172.855 869.811 167.238 842.472 159.834C844.789 158.998 847.114 158.154 850.458 156.946C843.687 153.457 838.019 150.531 830.793 146.806H965.256V146.814Z" fill="#E9F0EC"/>
</svg>
