<svg width="20" height="19" viewBox="0 0 20 19" fill="none" xmlns="http://www.w3.org/2000/svg">
<path d="M5 6C4.45 6 4 5.55 4 5C4 4.45 4.45 4 5 4H13.03C12.5969 3.43925 12.2904 2.79134 12.1316 2.10083C11.9728 1.41033 11.9654 0.693621 12.11 0H2.01C1.47957 0 0.970859 0.210714 0.595786 0.585786C0.220714 0.960859 0.00999999 1.46957 0.00999999 2L0 17.58C0 18.47 1.08 18.92 1.71 18.29L4 16H18C19.1 16 20 15.1 20 14V4.97C19.16 5.61 18.13 6 17 6H5ZM11 12H5C4.45 12 4 11.55 4 11C4 10.45 4.45 10 5 10H11C11.55 10 12 10.45 12 11C12 11.55 11.55 12 11 12ZM15 9H5C4.45 9 4 8.55 4 8C4 7.45 4.45 7 5 7H15C15.55 7 16 7.45 16 8C16 8.55 15.55 9 15 9Z" fill="#ED4E59"/>
</svg>
