<svg width="36" height="36" viewBox="0 0 36 36" fill="none" xmlns="http://www.w3.org/2000/svg">
<path d="M33 0H3C2.20435 0 1.44129 0.31607 0.87868 0.87868C0.31607 1.44129 0 2.20435 0 3V33C0 33.7957 0.31607 34.5587 0.87868 35.1213C1.44129 35.6839 2.20435 36 3 36H33C33.7957 36 34.5587 35.6839 35.1213 35.1213C35.6839 34.5587 36 33.7957 36 33V3C36 2.20435 35.6839 1.44129 35.1213 0.87868C34.5587 0.31607 33.7957 0 33 0ZM25.0687 22.9313C25.3504 23.2156 25.5084 23.5997 25.5084 24C25.5084 24.4003 25.3504 24.7844 25.0687 25.0687C24.782 25.346 24.3988 25.501 24 25.501C23.6012 25.501 23.218 25.346 22.9313 25.0687L18 20.1188L13.0687 25.0687C12.782 25.346 12.3988 25.501 12 25.501C11.6012 25.501 11.218 25.346 10.9313 25.0687C10.6496 24.7844 10.4916 24.4003 10.4916 24C10.4916 23.5997 10.6496 23.2156 10.9313 22.9313L15.8812 18L10.9313 13.0687C10.6921 12.7773 10.5698 12.4073 10.5883 12.0307C10.6068 11.6542 10.7647 11.2979 11.0313 11.0313C11.2979 10.7647 11.6542 10.6068 12.0307 10.5883C12.4073 10.5698 12.7773 10.6921 13.0687 10.9313L18 15.8812L22.9313 10.9313C23.2227 10.6921 23.5927 10.5698 23.9693 10.5883C24.3458 10.6068 24.7021 10.7647 24.9687 11.0313C25.2353 11.2979 25.3932 11.6542 25.4117 12.0307C25.4302 12.4073 25.3079 12.7773 25.0687 13.0687L20.1188 18L25.0687 22.9313Z" fill="white"/>
</svg>
