<svg width="36" height="36" viewBox="0 0 36 36" fill="none" xmlns="http://www.w3.org/2000/svg">
<path d="M33 0H3C2.20435 0 1.44129 0.31607 0.87868 0.87868C0.31607 1.44129 0 2.20435 0 3V33C0 33.7956 0.31607 34.5587 0.87868 35.1213C1.44129 35.6839 2.20435 36 3 36H33C33.7956 36 34.5587 35.6839 35.1213 35.1213C35.6839 34.5587 36 33.7956 36 33V3C36 2.20435 35.6839 1.44129 35.1213 0.87868C34.5587 0.31607 33.7956 0 33 0Z" fill="white"/>
<path d="M23 10C20.9 10 19.05 11.05 18 12.7C16.95 11.05 15.1 10 13 10C9.7 10 7 12.7 7 16C7 21.95 18 28 18 28C18 28 29 22 29 16C29 12.7 26.3 10 23 10Z" fill="#ED4E59"/>
</svg>
