<svg width="30" height="23" viewBox="0 0 30 23" fill="none" xmlns="http://www.w3.org/2000/svg">
<path d="M6.8154 0.500614C6.69523 0.378001 6.55208 0.28027 6.39412 0.213004C6.23617 0.145737 6.06651 0.110254 5.89483 0.108582C5.72316 0.106911 5.55284 0.139083 5.3936 0.203261C5.23437 0.267439 5.08934 0.362365 4.9668 0.482614C3.58071 1.86066 2.4812 3.49952 1.73172 5.30466C0.982228 7.10979 0.597593 9.04547 0.600002 11C0.597754 13.0296 1.01266 15.0379 1.81897 16.9004C2.62527 18.7629 3.80578 20.4398 5.2872 21.827C5.53654 22.0575 5.86589 22.1817 6.20533 22.1733C6.54477 22.1649 6.86757 22.0246 7.1052 21.782C7.674 21.2132 7.6038 20.3078 7.0566 19.784C5.8677 18.651 4.9216 17.288 4.27581 15.778C3.63002 14.2679 3.29803 12.6423 3.3 11C3.3 7.67721 4.6338 4.66401 6.7974 2.47161C7.3194 1.94061 7.3734 1.05861 6.8154 0.500614ZM9.9852 3.67401C9.74814 3.43009 9.42405 3.29009 9.08395 3.28469C8.74385 3.27929 8.41548 3.40894 8.1708 3.64521C7.19691 4.60633 6.42388 5.75154 5.8967 7.01419C5.36951 8.27684 5.09869 9.63173 5.1 11C5.09789 12.4468 5.40017 13.8778 5.98721 15.2001C6.57424 16.5224 7.43291 17.7064 8.5074 18.6752C8.75445 18.8935 9.07601 19.0083 9.40543 18.9959C9.73485 18.9835 10.0469 18.8448 10.2768 18.6086C10.8672 18.0182 10.7574 17.0894 10.203 16.5674C9.44306 15.8531 8.83771 14.9904 8.42439 14.0328C8.01108 13.0752 7.79857 12.043 7.8 11C7.8 8.93001 8.6226 7.05081 9.96 5.67201C10.4748 5.14281 10.5594 4.24461 9.9852 3.67221V3.67401ZM20.0148 3.67401C20.2519 3.43009 20.576 3.29009 20.916 3.28469C21.2561 3.27929 21.5845 3.40894 21.8292 3.64521C22.8031 4.60633 23.5761 5.75154 24.1033 7.01419C24.6305 8.27684 24.9013 9.63173 24.9 11C24.9021 12.4468 24.5998 13.8778 24.0128 15.2001C23.4258 16.5224 22.5671 17.7064 21.4926 18.6752C21.2456 18.8935 20.924 19.0083 20.5946 18.9959C20.2652 18.9835 19.9531 18.8448 19.7232 18.6086C19.1328 18.0182 19.2426 17.0894 19.797 16.5674C20.5569 15.8531 21.1623 14.9904 21.5756 14.0328C21.9889 13.0752 22.2014 12.043 22.2 11C22.2 8.93001 21.3774 7.05081 20.04 5.67201C19.5252 5.14281 19.4406 4.24461 20.0148 3.67221V3.67401ZM23.1846 0.502414C23.3048 0.379802 23.4479 0.28207 23.6059 0.214804C23.7638 0.147537 23.9335 0.112054 24.1052 0.110383C24.2768 0.108711 24.4472 0.140883 24.6064 0.205061C24.7656 0.269239 24.9107 0.364165 25.0332 0.484414C26.4191 1.86224 27.5185 3.50082 28.2679 5.30563C29.0174 7.11044 29.4022 9.04577 29.4 11C29.4022 13.0296 28.9873 15.0379 28.181 16.9004C27.3747 18.7629 26.1942 20.4398 24.7128 21.827C24.4635 22.0575 24.1341 22.1817 23.7947 22.1733C23.4552 22.1649 23.1324 22.0246 22.8948 21.782C22.326 21.2132 22.3962 20.3078 22.9452 19.784C24.1338 18.6508 25.0795 17.2878 25.725 15.7778C26.3705 14.2677 26.7022 12.6422 26.7 11C26.7 7.67721 25.3662 4.66401 23.2026 2.47161C22.6806 1.94061 22.6266 1.05861 23.1846 0.500614V0.502414ZM15 8.30001C14.2839 8.30001 13.5972 8.58448 13.0908 9.09083C12.5845 9.59717 12.3 10.2839 12.3 11C12.3 11.7161 12.5845 12.4029 13.0908 12.9092C13.5972 13.4156 14.2839 13.7 15 13.7C15.7161 13.7 16.4028 13.4156 16.9092 12.9092C17.4155 12.4029 17.7 11.7161 17.7 11C17.7 10.2839 17.4155 9.59717 16.9092 9.09083C16.4028 8.58448 15.7161 8.30001 15 8.30001Z" fill="white"/>
</svg>
