<svg width="24" height="24" viewBox="0 0 24 24" fill="none" xmlns="http://www.w3.org/2000/svg">
<path d="M13.26 3.3C13.4165 3.18804 13.5997 3.1191 13.7911 3.10006C13.9826 3.08101 14.1758 3.11254 14.3512 3.19148C14.5267 3.27042 14.6785 3.39402 14.7912 3.54993C14.904 3.70584 14.9739 3.88862 14.994 4.08L15 4.194V19.806C15.0001 19.9984 14.9496 20.1875 14.8538 20.3544C14.7579 20.5212 14.6199 20.66 14.4536 20.7569C14.2874 20.8537 14.0986 20.9053 13.9061 20.9063C13.7137 20.9074 13.5244 20.858 13.357 20.763L13.261 20.701L6.68 16H4C3.49542 16.0002 3.00943 15.8096 2.63945 15.4665C2.26947 15.1234 2.04284 14.6532 2.005 14.15L2 14V10C2.00009 9.4956 2.19077 9.00985 2.53384 8.64009C2.8769 8.27032 3.34702 8.04383 3.85 8.006L4 8H6.68L13.26 3.3ZM17.586 9.172L19 10.586L20.414 9.172C20.5062 9.07649 20.6166 9.00031 20.7386 8.9479C20.8606 8.89549 20.9918 8.8679 21.1246 8.86675C21.2574 8.8656 21.3891 8.8909 21.512 8.94118C21.6348 8.99146 21.7465 9.06571 21.8404 9.15961C21.9343 9.2535 22.0085 9.36515 22.0588 9.48805C22.1091 9.61094 22.1344 9.74262 22.1333 9.8754C22.1321 10.0082 22.1045 10.1394 22.0521 10.2614C21.9997 10.3834 21.9235 10.4938 21.828 10.586L20.414 12L21.828 13.414C22.0156 13.6015 22.1211 13.8559 22.1212 14.1211C22.1213 14.3864 22.016 14.6409 21.8285 14.8285C21.641 15.0161 21.3866 15.1216 21.1214 15.1217C20.8561 15.1218 20.6016 15.0165 20.414 14.829L19 13.413L17.586 14.828C17.3984 15.0155 17.1439 15.1208 16.8786 15.1207C16.6134 15.1206 16.359 15.0151 16.1715 14.8275C15.984 14.6399 15.8787 14.3854 15.8788 14.1201C15.8789 13.8549 15.9844 13.6005 16.172 13.413L17.586 12L16.172 10.586C16.0765 10.4938 16.0003 10.3834 15.9479 10.2614C15.8955 10.1394 15.8679 10.0082 15.8667 9.8754C15.8656 9.74262 15.8909 9.61094 15.9412 9.48805C15.9915 9.36515 16.0657 9.2535 16.1596 9.15961C16.2535 9.06571 16.3652 8.99146 16.488 8.94118C16.6109 8.8909 16.7426 8.8656 16.8754 8.86675C17.0082 8.8679 17.1394 8.89549 17.2614 8.9479C17.3834 9.00031 17.4938 9.07649 17.586 9.172Z" fill="#ED4E59"/>
</svg>
