<svg width="20" height="20" viewBox="0 0 20 20" fill="none" xmlns="http://www.w3.org/2000/svg">
<path d="M10 0C15.523 0 20 4.477 20 10C20 15.523 15.523 20 10 20C8.35779 20.0026 6.74043 19.5989 5.29201 18.825L9.1306e-06 20L1.17601 14.71C0.401771 13.2609 -0.00221457 11.6429 9.1306e-06 10C9.1306e-06 4.477 4.47701 0 10 0ZM10 5C8.40201 5 7.00001 6.34 7.00001 8V9H6.00001V14H14V9H13V8C13 7.20435 12.6839 6.44129 12.1213 5.87868C11.5587 5.31607 10.7957 5 10 5ZM12 11V12H8.00001V11H12ZM10 7C10.476 7 11 7.49 11 8V9H9.00001V8C9.00001 7.49 9.48701 7 10 7Z" fill="#ED4E59"/>
</svg>
