<svg width="42" height="42" viewBox="0 0 42 42" fill="none" xmlns="http://www.w3.org/2000/svg">
<path d="M36.8098 5.11691C36.2903 4.60718 35.6371 4.25263 34.9245 4.09392C34.212 3.93493 33.4689 3.97854 32.7798 4.21905L6.6342 13.2224C5.35054 13.6685 4.38998 14.7418 4.09424 16.0606C3.79847 17.3796 4.20927 18.7566 5.18076 19.7019L11.1488 25.4993V25.4996C11.6019 25.9397 12.2114 26.1845 12.8449 26.181C13.4784 26.1772 14.0849 25.9253 14.5328 25.4801L26.1978 13.8898C26.5077 13.5821 26.9591 13.4619 27.3822 13.5746C27.8055 13.6872 28.1359 14.0155 28.2493 14.4361C28.3627 14.8565 28.2417 15.305 27.932 15.613L16.3306 27.1402C15.8767 27.5919 15.6237 28.2051 15.6276 28.8432C15.6317 29.4813 15.892 30.0912 16.3513 30.5376L22.8883 36.8835C23.6164 37.5996 24.5996 38.0007 25.624 38C25.9454 38.0013 26.2657 37.9607 26.5764 37.8786C27.9014 37.5588 28.9621 36.574 29.3729 35.282L37.8118 9.09715C38.0356 8.40704 38.0604 7.66848 37.8832 6.96506C37.7063 6.26164 37.3347 5.62167 36.8103 5.11738L36.8098 5.11691Z" fill="black"/>
</svg>
