<svg width="22" height="22" viewBox="0 0 22 22" fill="none" xmlns="http://www.w3.org/2000/svg">
<path d="M5.70001 18.3L2.95001 17.7C2.70001 17.65 2.50001 17.5207 2.35001 17.312C2.20001 17.104 2.14168 16.875 2.17501 16.625L2.45001 13.8L0.575012 11.65C0.408346 11.4667 0.325012 11.25 0.325012 11C0.325012 10.75 0.408346 10.5334 0.575012 10.35L2.45001 8.20002L2.17501 5.37502C2.14168 5.12502 2.20001 4.89602 2.35001 4.68802C2.50001 4.47936 2.70001 4.35002 2.95001 4.30002L5.70001 3.70002L7.15001 1.25002C7.28335 1.03336 7.46668 0.89169 7.70001 0.825023C7.93335 0.758356 8.16668 0.76669 8.40001 0.850023L11 1.95002L13.6 0.850023C13.8333 0.76669 14.0667 0.758356 14.3 0.825023C14.5333 0.89169 14.7167 1.03336 14.85 1.25002L16.3 3.70002L19.05 4.30002C19.3 4.35002 19.5 4.47936 19.65 4.68802C19.8 4.89602 19.8583 5.12502 19.825 5.37502L19.55 8.20002L21.425 10.35C21.5917 10.5334 21.675 10.75 21.675 11C21.675 11.25 21.5917 11.4667 21.425 11.65L19.55 13.8L19.825 16.625C19.8583 16.875 19.8 17.104 19.65 17.312C19.5 17.5207 19.3 17.65 19.05 17.7L16.3 18.3L14.85 20.75C14.7167 20.9667 14.5333 21.1084 14.3 21.175C14.0667 21.2417 13.8333 21.2334 13.6 21.15L11 20.05L8.40001 21.15C8.16668 21.2334 7.93335 21.2417 7.70001 21.175C7.46668 21.1084 7.28335 20.9667 7.15001 20.75L5.70001 18.3ZM9.25001 13.85C9.43335 14.0334 9.66668 14.125 9.95001 14.125C10.2333 14.125 10.4667 14.0334 10.65 13.85L14.9 9.60002C15.1 9.40002 15.2 9.16236 15.2 8.88702C15.2 8.61236 15.1 8.37502 14.9 8.17502C14.7 7.97502 14.4627 7.87502 14.188 7.87502C13.9127 7.87502 13.675 7.97502 13.475 8.17502L9.95001 11.7L8.50001 10.275C8.30001 10.0917 8.06268 10.004 7.78801 10.012C7.51268 10.0207 7.28335 10.1167 7.10001 10.3C6.91668 10.4834 6.82501 10.7167 6.82501 11C6.82501 11.2834 6.91668 11.5167 7.10001 11.7L9.25001 13.85Z" fill="#FF1828"/>
</svg>
